<?xml version="1.0" encoding="utf-8"?>
<!-- Generator: Adobe Illustrator 24.0.2, SVG Export Plug-In . SVG Version: 6.00 Build 0)  -->
<svg version="1.1" id="Layer_1" xmlns="http://www.w3.org/2000/svg" xmlns:xlink="http://www.w3.org/1999/xlink" x="0px" y="0px"
	 width="249.2px" height="49px" viewBox="0 0 249.2 49" style="enable-background:new 0 0 249.2 49;" xml:space="preserve">
<style type="text/css">
	.st0{fill-rule:evenodd;clip-rule:evenodd;fill:#B21E5C;}
	.st1{fill-rule:evenodd;clip-rule:evenodd;fill:#CC8594;}
	.st2{fill-rule:evenodd;clip-rule:evenodd;fill:#8C3067;}
	.st3{fill-rule:evenodd;clip-rule:evenodd;fill:#60A5AA;}
	.st4{fill-rule:evenodd;clip-rule:evenodd;fill:#A6C9CB;}
	.st5{fill-rule:evenodd;clip-rule:evenodd;fill:#355E61;}
	.st6{fill:#FFFFFF;}
	.st7{fill:#60A5AA;}
	.st8{fill:#B21E5C;}
	.st9{clip-path:url(#SVGID_2_);fill:#60A6AC;}
	.st10{clip-path:url(#SVGID_2_);}
	.st11{clip-path:url(#SVGID_4_);fill:#B41E5C;}
	.st12{clip-path:url(#SVGID_4_);fill:#FFFFFF;}
	.st13{clip-path:url(#SVGID_6_);fill-rule:evenodd;clip-rule:evenodd;fill:#B4245C;}
	.st14{clip-path:url(#SVGID_6_);fill-rule:evenodd;clip-rule:evenodd;fill:#FFFFFF;}
	.st15{clip-path:url(#SVGID_6_);fill:none;stroke:#FFFFFF;stroke-width:0.19;stroke-miterlimit:10;}
	.st16{clip-path:url(#SVGID_8_);fill-rule:evenodd;clip-rule:evenodd;fill:#B4245C;}
	.st17{clip-path:url(#SVGID_8_);fill-rule:evenodd;clip-rule:evenodd;fill:#FFFFFF;}
	.st18{clip-path:url(#SVGID_8_);fill:none;stroke:#FFFFFF;stroke-width:0.19;stroke-miterlimit:10;}
	.st19{clip-path:url(#SVGID_10_);fill-rule:evenodd;clip-rule:evenodd;fill:#B4245C;}
	.st20{clip-path:url(#SVGID_10_);fill-rule:evenodd;clip-rule:evenodd;fill:#FFFFFF;}
	.st21{clip-path:url(#SVGID_10_);fill:none;stroke:#FFFFFF;stroke-width:0.196;stroke-miterlimit:10;}
	.st22{clip-path:url(#SVGID_12_);fill:#60A6AC;}
	.st23{clip-path:url(#SVGID_12_);fill:none;stroke:#60A6AC;stroke-miterlimit:10;}
	.st24{clip-path:url(#SVGID_12_);fill:#B4245C;}
	.st25{clip-path:url(#SVGID_12_);fill:#FFFFFF;}
	.st26{clip-path:url(#SVGID_12_);fill:none;stroke:#FFFFFF;stroke-width:0.163;stroke-miterlimit:10;}
	.st27{clip-path:url(#SVGID_12_);fill:#DCA6C3;}
	.st28{clip-path:url(#SVGID_12_);}
	.st29{clip-path:url(#SVGID_12_);fill:#AFAFB1;}
	.st30{clip-path:url(#SVGID_12_);fill:#F9F0E6;}
	.st31{clip-path:url(#SVGID_12_);fill:#56267E;}
	.st32{clip-path:url(#SVGID_12_);fill:none;stroke:#60A6AC;stroke-width:4.164;stroke-miterlimit:10;}
	.st33{clip-path:url(#SVGID_2_);fill:#B41E5C;}
	.st34{clip-path:url(#SVGID_14_);fill:#60A6AC;}
	.st35{clip-path:url(#SVGID_14_);fill:none;stroke:#60A6AC;stroke-miterlimit:10;}
	.st36{clip-path:url(#SVGID_14_);fill:#B4245C;}
	.st37{clip-path:url(#SVGID_14_);fill:#FFFFFF;}
	.st38{clip-path:url(#SVGID_14_);fill:none;stroke:#FFFFFF;stroke-width:0.163;stroke-miterlimit:10;}
	.st39{clip-path:url(#SVGID_14_);fill:none;stroke:#60A6AC;}
	.st40{clip-path:url(#SVGID_16_);fill:#60A6AC;}
	.st41{clip-path:url(#SVGID_16_);fill:none;stroke:#60A6AC;stroke-miterlimit:10;}
	.st42{clip-path:url(#SVGID_16_);fill:#B4245C;}
	.st43{clip-path:url(#SVGID_16_);fill:#FFFFFF;}
	.st44{clip-path:url(#SVGID_16_);fill:none;stroke:#FFFFFF;stroke-width:0.163;stroke-miterlimit:10;}
	.st45{fill-rule:evenodd;clip-rule:evenodd;fill:#DCB0B7;}
	.st46{fill:#1F1E21;}
	.st47{fill:#020001;}
	.st48{fill-rule:evenodd;clip-rule:evenodd;fill:none;stroke:#B21E5C;stroke-miterlimit:10;}
	.st49{fill:url(#SVGID_17_);}
	.st50{fill:#D27C32;}
	.st51{fill:none;stroke:#FFFFFF;stroke-miterlimit:10;}
	.st52{fill:#B0B0B0;}
	.st53{fill:#8B1D22;}
	.st54{fill:#BB2220;}
	.st55{fill:#F0F0F0;}
</style>
<g>
	<path class="st6" d="M18.1,11.5c-1.7,0,0.2-3.5-1.4-3.5c-3.1,0-6.4,11.7-6.4,20.8c0,6,0.4,15.3,2.8,15.3c3.3,0,6.7-8.8,9-14.6
		c0.1-0.3,0.4-0.4,0.6-0.4c0.5,0,1,0.5,0.8,0.9c-2.1,5.5-6.1,15.4-9.7,15.4c-4.4,0-10.1-0.9-10.1-17.7C3.7,11,10.4,4.3,14.8,4.3
		C21.3,4.3,19.9,11.5,18.1,11.5z"/>
	<path class="st6" d="M32.1,30.4c0,3.4-2.3,11.5-5.7,11.5c-1.8,0-5.1-0.2-5.1-6.3c0-6.1,2.7-11.1,4.9-11.1c1.7,0,3.1,0.3,3.2,0.6
		C30.9,25.3,32.1,26.9,32.1,30.4z M30.4,30.4c0-2.9-0.7-3.9-1.6-4.2c-1.1,1.9-2.6,6.4-2.6,9.8c0,2.9,0.5,4.4,0.8,4.4
		C27.3,40.3,30.4,35,30.4,30.4z"/>
	<path class="st6" d="M33.8,25.1c0-8.2,1.1-17.1,1.4-17.6c0.4-0.5,1.6-0.7,2.4-0.7c1.1,0,2.4,0.4,2.4,1.4c0,1-1.1,10.2-1.1,18.2
		c0,5.2,0.2,11.9,1,11.9c1.4,0,4.6-8.9,4.6-8.9c0.1-0.3,0.4-0.4,0.6-0.4c0.4,0,0.9,0.4,0.7,0.9c0,0-4.1,11.9-6.7,11.9
		C35.2,41.9,33.8,34.3,33.8,25.1z"/>
	<path class="st6" d="M59.8,29.1c0.4,0,0.9,0.4,0.7,0.9c0,0-4.6,11.9-9.1,11.9c-3.9,0-7.4-3.2-7.4-8.6c0-5.3,2.9-10.6,6.9-10.6
		c0.9,0,4.3,0.5,4.3,3.3c0,2.5-2.6,4.9-5.7,5.6c-0.1,0.3-0.1,0.6-0.1,1c0,4.4,1.7,6.1,2.7,6.1c3.3,0,6.9-9.2,6.9-9.2
		C59.3,29.2,59.6,29.1,59.8,29.1z M49.8,30.2c1.2-1,2.6-2.7,2.6-4.1c0-0.7-0.1-1.7-0.6-1.7C51.4,24.3,50.3,26.9,49.8,30.2z"/>
	<path class="st6" d="M70.3,29.1c0.4,0,0.9,0.4,0.7,0.9c0,0-4.1,11.9-6.7,11.9c-3.9,0-5.3-7.6-5.3-16.7c0-3.2,0.2-6.6,0.4-9.5
		c-1.4,0.1-2.7,0.1-3.7,0.1h-0.8c-1.6-0.1-1-2,0.1-2c0.5,0,2.2,0.1,4.6,0.1c0.3-3.6,0.7-6.1,0.9-6.3c0.4-0.6,1.5-0.7,2.4-0.7
		c1.1,0,2.4,0.4,2.4,1.4c0,0.4-0.2,2.5-0.5,5.4c1.2-0.1,2.5-0.2,3.7-0.4h0.1c0.9,0,0.8,1.5-0.2,1.6c-1.2,0.2-2.6,0.3-3.8,0.4
		c-0.2,3.3-0.5,7.4-0.5,11.2c0,5.2,0.2,11.9,1,11.9c1.4,0,4.6-8.9,4.6-8.9C69.8,29.2,70.1,29.1,70.3,29.1z"/>
	<path class="st6" d="M80.8,29.1c0.4,0,0.9,0.4,0.7,0.9c0,0-4.1,11.9-6.7,11.9c-3.9,0-5.3-7.6-5.3-16.7c0-3.2,0.2-6.6,0.4-9.5
		c-1.4,0.1-2.7,0.1-3.7,0.1h-0.8c-1.6-0.1-1-2,0.1-2c0.5,0,2.2,0.1,4.6,0.1c0.3-3.6,0.7-6.1,0.9-6.3c0.4-0.6,1.5-0.7,2.4-0.7
		c1.1,0,2.4,0.4,2.4,1.4c0,0.4-0.2,2.5-0.5,5.4c1.2-0.1,2.5-0.2,3.7-0.4H79c0.9,0,0.8,1.5-0.2,1.6c-1.2,0.2-2.6,0.3-3.8,0.4
		c-0.2,3.3-0.5,7.4-0.5,11.2c0,5.2,0.2,11.9,1,11.9c1.4,0,4.6-8.9,4.6-8.9C80.3,29.2,80.5,29.1,80.8,29.1z"/>
	<path class="st6" d="M95.4,29.1c0.4,0,0.9,0.4,0.7,0.9c0,0-4.6,11.9-9.1,11.9c-3.9,0-7.4-3.2-7.4-8.6c0-5.3,2.9-10.6,6.9-10.6
		c0.9,0,4.3,0.5,4.3,3.3c0,2.5-2.6,4.9-5.7,5.6c-0.1,0.3-0.1,0.6-0.1,1c0,4.4,1.7,6.1,2.7,6.1c3.3,0,6.9-9.2,6.9-9.2
		C94.9,29.2,95.2,29.1,95.4,29.1z M85.4,30.2c1.2-1,2.6-2.7,2.6-4.1c0-0.7-0.1-1.7-0.6-1.7C87,24.3,85.9,26.9,85.4,30.2z"/>
	<path class="st6" d="M120.7,3.7c1.7,0,1.6,2.6,0.1,2.7c-2.2,0.2-4.2,0.4-6,0.6c0.2,0.9-1.4,33.2-1.4,34.4c0,0.4-0.6,0.7-1.2,0.7
		c-1,0-2.2-0.4-2.3-1c-1.9-12.6-0.5-29.1,0.2-33.4c-2.6,0.4-4.2,0.8-4.2,0.8h-0.3c-1.5,0-1.7-2.4-0.4-2.7c5.6-1.1,13.7-1.9,15.4-2.1
		H120.7z"/>
	<path class="st6" d="M142,29.1c0.4,0,0.9,0.4,0.7,0.9c0,0-6.1,16.6-9.6,16.6c-2.9,0-5.1-3.6-4.4-11.7c0.4-4.7,2.5-12,2-12.1
		c-1.6-0.1-5.6,8.2-6.9,16.5c0,0.9,0.1,1.3,0.1,1.7c0.1,0.6-0.6,1-1.3,1c-0.7,0-1.5-0.4-1.7-1.2c-2.1-6.9-1.2-28.6,0.1-33
		c0.4-0.9,1.8-1,2.7-1c1.8,0.2,2.6,0.9,2.5,1.7c0,0.6-0.6,5-1,9.6c-0.5,5.7-0.8,9.9-1,13c2-5.8,4.8-11.2,8.4-11.2
		c1.9,0,3.5,2.2,3.5,4.6c0,2.6-1.9,8.2-2.5,15.4c-0.2,2.4,0.3,2.8,0.9,2.8c2.1,0,7-13.2,7-13.2C141.5,29.2,141.7,29.1,142,29.1z"/>
	<path class="st6" d="M160.6,29.1c0.4,0,0.9,0.4,0.7,0.9c0,0-4.5,13.1-7.1,13.1c-3.9,0-3.9-6.8-3.9-9.7c0-0.7,0-1.4,0.1-2.3
		c-1.2,3.2-3.5,8.5-5.6,8.5c-3.3,0-3.6-4.7-3.6-8s0.8-6.2,1.1-7.4c0,0,0.2-0.6,1.6-0.6c1.3,0,2.3,1.1,2.3,2.6
		c0,1.6-1.2,11.2-0.6,11.2c1.1,0,4.6-10.4,5.6-12.4c0.3-0.1,0.6-0.1,0.9-0.1c1.7,0,2.7,0.9,2.7,1.7c0,0.8-1.3,13.4,0,13.4
		c1.4,0,5.1-10.4,5.1-10.4C160.1,29.2,160.3,29.1,160.6,29.1z"/>
	<path class="st6" d="M191,29.1c0.4,0,0.9,0.4,0.7,0.9c0,0-5.9,15.4-9.4,15.4c-2.1,0-3.7-2.6-3.7-5.6c0-4.4,1.7-13.7,1.5-13.7
		c-0.6,0-5.4,14.6-6.6,14.6c-0.1,0.1-0.4,0.1-0.9,0.1c-1,0-2.5-0.3-2.7-1.4c-0.3-1.8-0.1-10.7-0.4-10.7c-0.2,0-3.5,7.4-4.6,12.1
		c0,0.3,0,0.5,0.1,0.7c0,0.4-0.7,0.6-1.6,0.6c-1.1,0-2.3-0.3-2.5-0.9c-1.9-5.2-0.7-17.7-0.2-18.6c0.3-0.4,0.9-0.6,1.7-0.6
		c1.4,0,3.3,0.7,3.2,1.6c-0.4,5.3-0.6,9.1-0.7,11.6c1.9-4.3,4.2-9.1,4.7-9.6c0.2-0.3,0.8-0.4,1.5-0.4c1,0,2.2,0.3,2.5,0.8
		c0.3,0.6,0.4,6,0.3,10.1c1.8-4.6,5.6-13.6,6.1-14.1c0.2-0.2,0.6-0.3,1.2-0.3c1.3,0,3.2,0.5,3.5,1.4c0.6,1.7-1.7,18.2-1.1,18.2
		c2,0,6.8-12,6.8-12C190.5,29.2,190.7,29.1,191,29.1z"/>
	<path class="st6" d="M213.4,29.1c0.4,0,0.9,0.4,0.7,0.9c0,0-4.5,13.1-7.1,13.1c-4,0-5.2-5.4-5.2-9c0-0.9,0.1-1.8,0.1-2.8
		c-2.1,4.7-5.1,10.6-7.7,10.6c-3.4,0-5-2.6-5-7.1c0-5.1,3.7-11.1,9.6-11.1c2.2,0,3.4,0.4,4.2,1.1c0.1-0.2,0.2-0.4,0.2-0.6
		c0.2-0.5,0.9-0.7,1.6-0.7c1.5,0,3.4,0.8,3.2,1.6c-1.6,7.4-0.8,14.8-0.2,14.8c1.4,0,5.1-10.4,5.1-10.4
		C212.9,29.2,213.1,29.1,213.4,29.1z M200.5,30.3c0-1.2-0.2-4.1-1.4-4.1c-1.5,0-4.9,4.4-4.9,10.5c0,1.4,0.4,1.9,0.9,1.9
		C196.7,38.6,198.8,34.2,200.5,30.3z"/>
	<path class="st6" d="M212.5,25.1c0-8.2,1.1-17.1,1.4-17.6c0.4-0.5,1.6-0.7,2.4-0.7c1.1,0,2.4,0.4,2.4,1.4c0,1-1.1,10.2-1.1,18.2
		c0,5.2,0.2,11.9,1,11.9c1.4,0,4.6-8.9,4.6-8.9c0.1-0.3,0.4-0.4,0.6-0.4c0.4,0,0.9,0.4,0.7,0.9c0,0-4.1,11.9-6.7,11.9
		C213.9,41.9,212.5,34.3,212.5,25.1z"/>
	<path class="st6" d="M246.3,29.1c0.4,0,0.9,0.4,0.7,0.9c0,0-4.5,13.1-7.1,13.1c-4,0-5.2-5.4-5.2-9c0-0.9,0.1-1.8,0.1-2.8
		c-2.1,4.7-5.1,10.6-7.7,10.6c-3.4,0-5-2.6-5-7.1c0-5.1,3.7-11.1,9.6-11.1c2.2,0,3.4,0.4,4.2,1.1c0.1-0.2,0.2-0.4,0.2-0.6
		c0.2-0.5,0.9-0.7,1.6-0.7c1.5,0,3.4,0.8,3.2,1.6c-1.6,7.4-0.8,14.8-0.3,14.8c1.4,0,5.1-10.4,5.1-10.4
		C245.8,29.2,246,29.1,246.3,29.1z M233.4,30.3c0-1.2-0.2-4.1-1.4-4.1c-1.5,0-4.9,4.4-4.9,10.5c0,1.4,0.4,1.9,0.9,1.9
		C229.6,38.6,231.7,34.2,233.4,30.3z"/>
</g>
</svg>
